<svg width="40" height="40" viewBox="0 0 40 40" fill="none" xmlns="http://www.w3.org/2000/svg">
<g clip-path="url(#clip0_1894_5088)">
<path d="M35.6954 23.9679C35.6018 24.0968 35.5593 24.2557 35.576 24.414L36.0848 29.287L31.6073 31.2803C31.461 31.3446 31.3438 31.4613 31.2791 31.6076L29.2874 36.085L24.413 35.5755C24.2548 35.5592 24.0962 35.602 23.9676 35.6957L20.0002 38.5713L16.0321 35.6957C15.9221 35.6153 15.7897 35.5721 15.6538 35.5724C15.6312 35.5724 15.6085 35.5724 15.5892 35.5755L10.7145 36.085L8.7228 31.6076C8.65786 31.4613 8.54122 31.3443 8.39494 31.2794L3.91495 29.287L4.42376 24.414C4.44016 24.2557 4.3976 24.0968 4.30428 23.9679L1.42859 19.9999L4.30428 16.0319C4.3976 15.903 4.44016 15.7441 4.42376 15.5858L3.91495 10.7124L8.39242 8.71947C8.5387 8.65516 8.65565 8.53851 8.72028 8.39224L10.712 3.91481L15.5867 4.42425C15.7446 4.44001 15.9032 4.39713 16.0321 4.30414L20.0002 1.42847L23.9682 4.30414C24.0968 4.39745 24.2554 4.44001 24.4137 4.42425L29.288 3.91481L31.2798 8.39224C31.3447 8.53851 31.4617 8.65516 31.6079 8.7201L36.0854 10.7124L35.5766 15.5858C35.5599 15.7441 35.6024 15.903 35.6961 16.0319L38.5714 19.9999L35.6954 23.9679Z" stroke="#1C3532" stroke-width="1.5"/>
<path fill-rule="evenodd" clip-rule="evenodd" d="M17.6631 24.6123L17.4717 24.8405L18.2377 25.4833L26.9785 15.0664L26.2125 14.4236L18.3059 23.8463L13.6378 19.9293L12.995 20.6953L17.6631 24.6123Z" fill="#1C3532"/>
<path d="M17.4717 24.8405L17.2801 24.6798L17.1194 24.8713L17.311 25.032L17.4717 24.8405ZM17.6631 24.6123L17.8546 24.773L18.0153 24.5815L17.8238 24.4208L17.6631 24.6123ZM18.2377 25.4833L18.077 25.6748L18.2685 25.8355L18.4292 25.644L18.2377 25.4833ZM26.9785 15.0664L27.17 15.2271L27.3307 15.0356L27.1392 14.8749L26.9785 15.0664ZM26.2125 14.4236L26.3732 14.2321L26.1817 14.0714L26.021 14.2629L26.2125 14.4236ZM18.3059 23.8463L18.1452 24.0378L18.3367 24.1985L18.4974 24.007L18.3059 23.8463ZM13.6378 19.9293L13.7985 19.7378L13.607 19.5771L13.4463 19.7686L13.6378 19.9293ZM12.995 20.6953L12.8035 20.5346L12.6428 20.7261L12.8343 20.8868L12.995 20.6953ZM17.6632 25.0012L17.8546 24.773L17.4716 24.4516L17.2801 24.6798L17.6632 25.0012ZM18.3984 25.2918L17.6324 24.649L17.311 25.032L18.077 25.6748L18.3984 25.2918ZM26.787 14.9057L18.0462 25.3226L18.4292 25.644L27.17 15.2271L26.787 14.9057ZM26.0518 14.6151L26.8178 15.2579L27.1392 14.8749L26.3732 14.2321L26.0518 14.6151ZM18.4974 24.007L26.404 14.5843L26.021 14.2629L18.1144 23.6856L18.4974 24.007ZM13.4771 20.1208L18.1452 24.0378L18.4666 23.6548L13.7985 19.7378L13.4771 20.1208ZM13.1865 20.856L13.8293 20.09L13.4463 19.7686L12.8035 20.5346L13.1865 20.856ZM17.8238 24.4208L13.1557 20.5038L12.8343 20.8868L17.5024 24.8038L17.8238 24.4208Z" fill="#1C3532"/>
</g>
<defs>
<clipPath id="clip0_1894_5088">
<rect width="40" height="40" fill="white"/>
</clipPath>
</defs>
</svg>
