<svg width="120" height="32" viewBox="0 0 120 32" fill="none" xmlns="http://www.w3.org/2000/svg">
<path d="M39.5862 0H36.5531V15.193H39.5862V0Z" fill="white"/>
<path d="M12.9242 14.6969C8.87133 13.5194 5.03545 12.4 4.5116 9.09408H1.39176C1.72188 14.406 7.02236 15.9388 11.7199 17.2924C15.5946 18.4102 19.2615 19.4713 20.0612 22.3639H23.1997C22.4929 17.4777 17.6311 16.0643 12.9242 14.6969Z" fill="white"/>
<path d="M4.68518 6.63183C5.35937 4.39009 7.34472 3.03493 10.3607 2.76543V0.00152893C7.98326 0.19906 5.91421 0.952436 4.35662 2.19121C2.93138 3.30502 1.94465 4.87567 1.56689 6.63183H4.68518Z" fill="white"/>
<path d="M65.9227 2.62303C68.4939 2.62303 72.7421 3.34731 73.0365 8.06661H76.1672C76.0448 5.63652 75.0823 3.62599 73.3589 2.22337C71.5704 0.768686 68.9992 1.49474e-06 65.9196 1.49474e-06H55.0041V2.62303H65.9227Z" fill="white"/>
<path d="M12.8529 2.76849C15.9696 3.07474 18.5439 4.75912 20.5076 7.78333L20.6626 8.01914L23.1423 6.50627L22.9873 6.26433C20.5975 2.50512 17.0979 0.346063 12.8622 1.49474e-06L12.8529 2.76849Z" fill="white"/>
<path d="M76.0045 10.5273H72.8536C72.3499 12.7032 70.6978 15.0323 65.9227 15.0323H60.5277V17.6553H65.1974L74.3276 31.974H77.9898L68.4831 17.3506C72.6289 16.6355 75.3427 14.1778 76.0045 10.5273Z" fill="white"/>
<path d="M20.0907 24.8261C19.511 27.5824 16.8608 29.2239 12.8529 29.2851V32C18.485 31.925 22.5565 29.0906 23.1966 24.8261H20.0907Z" fill="white"/>
<path d="M58.0371 5.08527H55.0041V31.974H58.0371V5.08527Z" fill="white"/>
<path d="M10.3607 29.1213C7.1884 28.6271 4.32648 26.9556 2.35887 24.4479L2.16979 24.209L0 26.1261L0.154985 26.3344C2.46891 29.3846 6.0816 31.3354 10.3607 31.8607V29.1213Z" fill="white"/>
<path d="M39.5862 17.6553H36.5531V32H39.5862V17.6553Z" fill="white"/>
<path d="M116.916 17.2786C116.626 20.2775 115.288 23.0831 113.131 25.2132C110.975 27.3433 108.135 28.665 105.1 28.9513V32C108.954 31.709 112.575 30.0645 115.308 27.3642C118.041 24.664 119.705 21.0863 120 17.2786H116.916Z" fill="white"/>
<path d="M102.643 28.9513C99.6082 28.6644 96.769 27.3424 94.6131 25.2124C92.4572 23.0824 91.1192 20.2772 90.8288 17.2786H87.7415C88.0354 21.0865 89.6996 24.6645 92.4328 27.3649C95.1661 30.0653 98.7876 31.7096 102.642 32L102.643 28.9513Z" fill="white"/>
<path d="M90.8288 14.8484C91.1192 11.8498 92.4572 9.04466 94.6131 6.91464C96.769 4.78462 99.6082 3.46265 102.643 3.17575V0.12704C98.7887 0.416802 95.1667 2.06081 92.4331 4.7613C89.6995 7.4618 88.0352 11.0402 87.7415 14.8484H90.8288Z" fill="white"/>
<path d="M105.1 3.17575C108.135 3.4627 110.974 4.78472 113.129 6.91477C115.285 9.04482 116.623 11.85 116.913 14.8484H120C119.706 11.0407 118.041 7.4628 115.308 4.76246C112.575 2.06212 108.954 0.417765 105.1 0.12704V3.17575Z" fill="white"/>
</svg>
