<svg width="40" height="40" viewBox="0 0 40 40" fill="none" xmlns="http://www.w3.org/2000/svg">
<g clip-path="url(#clip0_3229_5576)">
<path d="M16.1889 12.9947L16.1889 12.9947L16.1923 12.9919C16.81 12.4949 17.6138 12.1503 18.5569 11.9944V12.4701C17.1985 12.696 16.1746 13.3689 15.7021 14.4812H15.0743C15.3092 13.9007 15.6918 13.3873 16.1889 12.9947ZM20.3528 20.0229L20.3529 20.0229C21.6147 20.3938 22.8128 20.7497 23.7475 21.3173C24.4921 21.7694 25.0432 22.3399 25.3061 23.15H24.6234C24.2916 22.3891 23.6424 21.8731 22.9033 21.4911C22.063 21.0566 21.0227 20.7531 20.0173 20.4597L19.9966 20.4536L19.9965 20.4536C18.7373 20.0864 17.4872 19.7172 16.5239 19.1101C15.7325 18.6113 15.1632 17.9706 14.9621 17.042H15.6467C15.9172 17.9002 16.5598 18.4825 17.3249 18.9075C18.1854 19.3854 19.2754 19.706 20.3232 20.0142L20.3528 20.0229ZM6.75611 6.70229C9.96122 3.49718 14.2121 1.56203 18.7223 1.24301L18.7412 1.67132C14.338 1.98552 10.1885 3.87599 7.05916 7.00534C3.92981 10.1347 2.03924 14.2842 1.72503 18.6874L1.29672 18.6685C1.61575 14.1582 3.55101 9.9074 6.75611 6.70229ZM33.2975 6.75626C36.5026 9.96137 38.4378 14.2122 38.7568 18.7225L38.3285 18.7414C38.0143 14.3381 36.1238 10.1887 32.9945 7.05931C29.8651 3.92996 25.7156 2.03949 21.3124 1.72529L21.3313 1.29698C25.8416 1.61601 30.0924 3.55116 33.2975 6.75626ZM38.2744 21.3123L38.7027 21.3312C38.3837 25.8415 36.4486 30.0923 33.2434 33.2974C30.0383 36.5026 25.7875 38.4377 21.2772 38.7567L21.2583 38.3284C25.6616 38.0142 29.8111 36.1237 32.9404 32.9944C36.0697 29.8651 37.9602 25.7155 38.2744 21.3123ZM6.70229 33.2436C3.49718 30.0384 1.56203 25.7876 1.24301 21.2773L1.67132 21.2584C1.98552 25.6617 3.87599 29.8112 7.00534 32.9405C10.1347 36.0699 14.2842 37.9603 18.6874 38.2745L18.6685 38.7028C14.1582 38.3838 9.9074 36.4487 6.70229 33.2436ZM24.6573 15.0426C23.6689 13.6281 22.3978 12.7505 20.875 12.4767L20.8745 11.9931C22.6028 12.2755 24.0504 13.2106 25.117 14.7576L24.6573 15.0426ZM20.8755 28.049V27.5916C22.7006 27.4467 24.0995 26.6472 24.5861 25.2272L25.2209 25.228C24.7167 26.7683 23.15 27.8776 20.8755 28.049ZM14.6628 25.1187C15.6758 26.2938 17.0425 27.1088 18.5569 27.4415V27.9107C16.7772 27.5753 15.2836 26.7259 14.2527 25.4846L14.6628 25.1187Z" stroke="black"/>
</g>
<defs>
<clipPath id="clip0_3229_5576">
<rect width="40" height="40" fill="white"/>
</clipPath>
</defs>
</svg>
